<svg width="26" height="26" viewBox="0 0 26 26" fill="none" xmlns="http://www.w3.org/2000/svg">
<path d="M13.5417 8.125L6.38652 15.2801C6.17399 15.4927 6.06773 15.5989 5.99786 15.7295C5.92799 15.86 5.89852 16.0074 5.83957 16.3021L5.02209 20.3896C4.95557 20.7222 4.9223 20.8885 5.01691 20.9831C5.11152 21.0777 5.27783 21.0444 5.61044 20.9779L9.69788 20.1604C9.9926 20.1015 10.14 20.072 10.2705 20.0021C10.4011 19.9323 10.5073 19.826 10.7199 19.6135L17.875 12.4583L13.5417 8.125Z" fill="#808080"/>
<path d="M16.2498 6.31445C16.6408 6.31445 16.9545 6.48011 17.2263 6.6875C17.4843 6.88432 17.7673 7.16892 18.0886 7.49023L18.5105 7.91113C18.8318 8.23247 19.1164 8.51547 19.3132 8.77344C19.5206 9.04524 19.6863 9.35899 19.6863 9.75C19.6863 10.141 19.5206 10.4548 19.3132 10.7266C19.1164 10.9845 18.8318 11.2675 18.5105 11.5889L10.5662 19.5322C10.394 19.7044 10.2326 19.8729 10.0271 19.9893C9.82155 20.1056 9.59431 20.1578 9.35815 20.2168L6.37085 20.9629C6.20992 21.0031 6.02269 21.052 5.86499 21.0674C5.69987 21.0835 5.40022 21.0821 5.15894 20.8408C4.91781 20.5996 4.91622 20.2999 4.93237 20.1348C4.94784 19.9771 4.99666 19.7897 5.03687 19.6289L5.78394 16.6416C5.84294 16.4056 5.89418 16.1781 6.0105 15.9727C6.12687 15.7672 6.29543 15.6057 6.46753 15.4336L14.4119 7.49023C14.7332 7.16889 15.0162 6.88432 15.2742 6.6875C15.5459 6.48023 15.8589 6.31454 16.2498 6.31445Z" stroke="#808080" stroke-width="1.2"/>
<path d="M13.5417 8.125L17.8751 12.4583" stroke="#808080" stroke-width="1.2"/>
</svg>
