<svg width="40" height="40" viewBox="0 0 40 40" fill="none" xmlns="http://www.w3.org/2000/svg">
<path d="M20 8.33301C28.2842 8.33301 34.9998 15.0489 35 23.333C35 31.6173 28.2843 38.333 20 38.333C11.7157 38.333 5 31.6173 5 23.333C5.00018 15.0489 11.7158 8.33301 20 8.33301ZM20 11.667C13.5568 11.6672 8.33301 16.8908 8.33301 23.334L8.33691 23.6348C8.49425 29.8385 13.4946 34.8386 19.6982 34.9961L20 35C26.3424 34.9998 31.5022 29.9387 31.6621 23.6348L31.666 23.334C31.666 16.9913 26.6049 11.8306 20.3008 11.6709L20 11.667ZM20 13.667C25.3386 13.6672 29.666 17.9953 29.666 23.334C29.6657 28.6723 25.3384 32.9998 20 33C14.6616 32.9998 10.3334 28.6723 10.333 23.334C10.333 17.9953 14.6614 13.6672 20 13.667ZM20 17.333C19.4478 17.333 19.0002 17.7809 19 18.333V23.333C19 23.8853 19.4477 24.333 20 24.333C20.5523 24.333 21 23.8853 21 23.333V18.333C20.9998 17.7809 20.5522 17.333 20 17.333Z" fill="#4D4D4D"/>
<path d="M29.1667 12.5L31.6667 10" stroke="#4D4D4D" stroke-width="2" stroke-linecap="round"/>
<path d="M16.7802 3.9509C16.9702 3.77371 17.3886 3.61713 17.9708 3.50546C18.5529 3.39378 19.2662 3.33325 20 3.33325C20.7338 3.33325 21.4471 3.39378 22.0292 3.50546C22.6113 3.61713 23.0298 3.77371 23.2197 3.9509" stroke="#4D4D4D" stroke-width="2" stroke-linecap="round"/>
</svg>
