<svg width="20" height="20" viewBox="0 0 20 20" fill="none" xmlns="http://www.w3.org/2000/svg">
<g clip-path="url(#clip0_155_326)">
<path fill-rule="evenodd" clip-rule="evenodd" d="M9.94566 0.953155C10.2444 0.686018 10.6724 0.545818 11.1283 0.672589C11.4797 0.770314 11.8217 0.914276 12.146 1.10389C13.4617 1.87316 15.2562 3.11362 16.7277 4.83442C18.2029 6.55946 19.3758 8.79529 19.3758 11.532C19.3758 14.2096 18.3122 16.2048 16.5615 17.5112C14.8359 18.7989 12.5013 19.3758 9.99999 19.3758C7.49861 19.3758 5.16407 18.7989 3.43843 17.5112C1.68781 16.2048 0.624176 14.2096 0.624176 11.532C0.624176 7.53284 3.122 4.61138 5.43366 2.76075C6.29753 2.06918 7.4277 2.61093 7.73886 3.48408C7.9524 4.08324 8.2067 4.56054 8.48474 4.83571C8.50657 4.85733 8.53132 4.86742 8.57174 4.86188C8.61874 4.85546 8.67791 4.82604 8.72182 4.76633C9.19807 4.11883 9.40745 3.05576 9.46349 1.98101C9.48403 1.58684 9.65695 1.21134 9.94566 0.953155ZM10.3028 9.72158C10.1107 9.62721 9.88916 9.62721 9.69707 9.72158C8.87566 10.1252 6.66661 11.4125 6.66661 13.5833C6.66661 15.4243 8.15899 16.25 9.99995 16.25C11.8409 16.25 13.3333 15.4243 13.3333 13.5833C13.3333 11.4125 11.1242 10.1252 10.3028 9.72158Z" fill="#FF6333"/>
</g>
<defs>
<clipPath id="clip0_155_326">
<rect width="20" height="20" fill="white"/>
</clipPath>
</defs>
</svg>
