<svg width="25" height="25" viewBox="0 0 25 25" fill="none" xmlns="http://www.w3.org/2000/svg">
<path d="M12.5 5.20801C17.6776 5.20801 21.8748 9.40549 21.875 14.583C21.875 19.7607 17.6777 23.958 12.5 23.958C7.32233 23.958 3.125 19.7607 3.125 14.583C3.12518 9.40549 7.32244 5.20801 12.5 5.20801ZM12.5 7.29199C8.47307 7.29217 5.20801 10.557 5.20801 14.584L5.21777 14.959C5.40696 18.687 8.39608 21.6769 12.124 21.8662L12.5 21.875C16.4009 21.8748 19.5867 18.8114 19.7822 14.959L19.791 14.584C19.791 10.6828 16.7276 7.49711 12.875 7.30176L12.5 7.29199ZM12.5 9.29199C15.4224 9.29217 17.791 11.6616 17.791 14.584C17.7907 17.5061 15.4221 19.8748 12.5 19.875C9.57786 19.8748 7.20836 17.5061 7.20801 14.584C7.20801 11.6616 9.57764 9.29217 12.5 9.29199ZM12.5 10.458C11.9478 10.458 11.5002 10.9059 11.5 11.458V14.583C11.5 15.1353 11.9477 15.583 12.5 15.583C13.0523 15.583 13.5 15.1353 13.5 14.583V11.458C13.4998 10.9059 13.0522 10.458 12.5 10.458Z" fill="#808080"/>
<path d="M18.2292 7.8125L19.7917 6.25" stroke="#808080" stroke-width="2" stroke-linecap="round"/>
<path d="M10.4876 2.46928C10.6063 2.35854 10.8679 2.26068 11.2317 2.19088C11.5956 2.12108 12.0414 2.08325 12.5 2.08325C12.9586 2.08325 13.4044 2.12108 13.7682 2.19088C14.1321 2.26068 14.3936 2.35854 14.5123 2.46928" stroke="#808080" stroke-width="2" stroke-linecap="round"/>
</svg>
