<svg width="22" height="23" viewBox="0 0 22 23" fill="none" xmlns="http://www.w3.org/2000/svg">
<path fill-rule="evenodd" clip-rule="evenodd" d="M20.9118 12.5351C21.4912 12.7177 21.8128 13.3355 21.6302 13.9149L21.356 14.7844L20.9887 15.6711L20.5456 16.5224L20.0299 17.3318L19.4457 18.0932L18.7973 18.8008L18.0897 19.4491L17.3283 20.0334L16.5189 20.549L15.7102 20.97C15.1714 21.2505 14.5071 21.0411 14.2266 20.5022C13.9461 19.9633 14.1555 19.2991 14.6944 19.0186L15.4179 18.642L16.0653 18.2295L16.6743 17.7622L17.2402 17.2436L17.7588 16.6777L18.2261 16.0687L18.6385 15.4213L18.993 14.7404L19.2867 14.0313L19.532 13.2534C19.7147 12.674 20.3324 12.3524 20.9118 12.5351Z" fill="#4D4D4D"/>
<path fill-rule="evenodd" clip-rule="evenodd" d="M21.0063 10.377C20.4132 10.5085 19.8258 10.1342 19.6943 9.54113L19.5177 8.74483L19.2869 8.01275L18.9932 7.30356L18.6387 6.62269L18.2263 5.97529L17.759 5.36631L17.2404 4.80037L16.6745 4.28178L16.0655 3.81448L15.4181 3.40205L14.7372 3.0476L14.028 2.75385L13.2959 2.52303L12.5465 2.35689L11.7855 2.25669L11.0186 2.22321L10.2517 2.25669L9.49068 2.35689L8.74126 2.52303L8.00918 2.75385L7.29999 3.04761L6.61912 3.40204L5.97172 3.81449L5.36274 4.28178L4.7968 4.80036L4.2782 5.36631L3.81092 5.97529L3.39848 6.62268L3.04403 7.30357L2.75029 8.01273L2.51946 8.74483L2.35332 9.49424L2.25313 10.2553L2.21964 11.0222L2.25312 11.789L2.35332 12.5501L2.51946 13.2995L2.75028 14.0316L3.04403 14.7408L3.39848 15.4216L3.81092 16.069L4.27821 16.678L4.7968 17.244L5.36274 17.7626L5.97171 18.2298L6.61913 18.6423L7.3 18.9967L8.00916 19.2905L8.74126 19.5213L9.49067 19.6874L10.2517 19.7876L11.0666 19.8232C11.6735 19.8497 12.144 20.3632 12.1175 20.9701C12.091 21.5771 11.5775 22.0476 10.9706 22.0211L10.0598 21.9813L9.10828 21.8561L8.17131 21.6484L7.25602 21.3598L6.36935 20.9925L5.51807 20.5494L4.70865 20.0337L3.94726 19.4495L3.23968 18.8011L2.5913 18.0935L2.00706 17.3321L1.49141 16.5227L1.04826 15.6714L0.680994 14.7847L0.3924 13.8694L0.184677 12.9325L0.0594087 11.981L0.0175477 11.0222L0.0594114 10.0634L0.184679 9.11185L0.392401 8.17488L0.680992 7.25958L1.04826 6.37292L1.49141 5.52164L2.00707 4.71222L2.59131 3.95083L3.23968 3.24325L3.94726 2.59487L4.70865 2.01063L5.51807 1.49498L6.36935 1.05183L7.25602 0.684561L8.17132 0.395968L9.10828 0.188247L10.0598 0.0629779L11.0186 0.0211158L11.9774 0.0629778L12.9289 0.188247L13.8659 0.395967L14.7812 0.68456L15.6678 1.05183L16.5191 1.49498L17.3285 2.01063L18.0899 2.59487L18.7975 3.24325L19.4459 3.95083L20.0301 4.71222L20.5458 5.52164L20.9889 6.37292L21.3562 7.25958L21.6448 8.17488L21.8421 9.06496C21.9736 9.65808 21.5994 10.2455 21.0063 10.377Z" fill="#B3B3B3"/>
</svg>
