<svg width="25" height="25" viewBox="0 0 25 25" fill="none" xmlns="http://www.w3.org/2000/svg">
<path d="M6.25 5.70825V15.6249H17.5429C18.0566 15.6249 18.3135 15.6249 18.3774 15.4706C18.4413 15.3163 18.2597 15.1346 17.8964 14.7714L13.8245 10.6994C13.6912 10.5661 13.6245 10.4994 13.6245 10.4166C13.6245 10.3337 13.6912 10.2671 13.8245 10.1337L17.8964 6.06181C18.2597 5.69854 18.4413 5.51691 18.3774 5.36258C18.3135 5.20825 18.0566 5.20825 17.5429 5.20825H6.75C6.5143 5.20825 6.39645 5.20825 6.32322 5.28148C6.25 5.3547 6.25 5.47255 6.25 5.70825Z" fill="#808080"/>
<path d="M6.25 15.6249V5.70825C6.25 5.47255 6.25 5.3547 6.32322 5.28148C6.39645 5.20825 6.5143 5.20825 6.75 5.20825H17.5429C18.0566 5.20825 18.3135 5.20825 18.3774 5.36258C18.4413 5.51691 18.2597 5.69854 17.8964 6.06181L13.8245 10.1337C13.6912 10.2671 13.6245 10.3337 13.6245 10.4166C13.6245 10.4994 13.6912 10.5661 13.8245 10.6994L17.8964 14.7714C18.2597 15.1346 18.4413 15.3163 18.3774 15.4706C18.3135 15.6249 18.0566 15.6249 17.5429 15.6249H6.25ZM6.25 15.6249V19.7916" stroke="#808080" stroke-width="2" stroke-linecap="round"/>
</svg>
