<svg width="40" height="40" viewBox="0 0 40 40" fill="none" xmlns="http://www.w3.org/2000/svg">
<path d="M19.9999 6.66699C27.3637 6.66701 33.333 12.6362 33.333 20C33.333 27.3638 27.3637 33.333 19.9999 33.333C14.3579 33.333 9.53504 29.8287 7.58784 24.8779L19.4218 21.708C19.6084 21.658 19.8953 21.5851 20.1367 21.4844C20.4182 21.3668 20.8374 21.1351 21.1191 20.6475C21.4007 20.1597 21.3915 19.6806 21.3525 19.3779C21.319 19.1184 21.2394 18.8332 21.1894 18.6465L18.0185 6.8125C18.665 6.71619 19.3267 6.66699 19.9999 6.66699ZM18.1621 18.9395L6.81245 21.9795C6.71632 21.3336 6.66694 20.6726 6.66694 20C6.66694 14.3586 10.1701 9.53551 15.1201 7.58789L18.1621 18.9395Z" fill="#333333"/>
<path d="M16.204 5.83301C15.9551 4.90397 15.8306 4.43945 15.4282 4.2383C15.0259 4.03716 14.614 4.20255 13.7901 4.53333C12.3849 5.09752 11.0602 5.85177 9.85398 6.77736C8.11757 8.10976 6.66059 9.77112 5.56624 11.6666C4.47189 13.5621 3.7616 15.6545 3.47592 17.8245C3.27746 19.3319 3.28661 20.8563 3.50061 22.3553C3.62607 23.2342 3.6888 23.6736 4.06417 23.9215C4.43953 24.1693 4.90405 24.0449 5.83309 23.7959L18.0681 20.5176C18.9788 20.2735 19.4342 20.1515 19.6413 19.7928C19.8484 19.4341 19.7264 18.9788 19.4824 18.0681L16.204 5.83301Z" fill="#4D4D4D"/>
</svg>
