<svg width="30" height="30" viewBox="0 0 30 30" fill="none" xmlns="http://www.w3.org/2000/svg">
<path d="M12.4306 16.6982L10.9358 16.5623C9.40803 16.4235 8.64412 16.354 8.40146 15.8314C8.15881 15.3088 8.59869 14.6804 9.47845 13.4236L14.8112 5.80544C15.3924 4.97517 15.683 4.56003 15.9336 4.64831C16.1842 4.73658 16.1505 5.2422 16.0831 6.25342L15.7549 11.1769C15.6935 12.0971 15.6629 12.5572 15.9273 12.8669C16.1917 13.1765 16.6509 13.2183 17.5694 13.3018L19.0642 13.4377C20.592 13.5765 21.3559 13.646 21.5985 14.1686C21.8412 14.6912 21.4013 15.3196 20.5215 16.5764L15.1888 24.1946C14.6076 25.0248 14.317 25.44 14.0664 25.3517C13.8158 25.2634 13.8495 24.7578 13.9169 23.7466L14.2451 18.8231C14.3065 17.9029 14.3371 17.4428 14.0727 17.1331C13.8083 16.8235 13.3491 16.7817 12.4306 16.6982Z" fill="#333333"/>
</svg>
