<svg width="22" height="22" viewBox="0 0 22 22" fill="none" xmlns="http://www.w3.org/2000/svg">
<path d="M8.47917 20.1667L8.11251 17.2334C7.9139 17.157 7.72674 17.0653 7.55105 16.9584C7.37535 16.8514 7.20348 16.7368 7.03542 16.6146L4.30834 17.7605L1.78751 13.4063L4.14792 11.6188C4.13265 11.5118 4.12501 11.4087 4.12501 11.3094V10.6907C4.12501 10.5914 4.13265 10.4882 4.14792 10.3813L1.78751 8.59379L4.30834 4.23962L7.03542 5.38546C7.20348 5.26324 7.37917 5.14865 7.56251 5.04171C7.74584 4.93476 7.92917 4.8431 8.11251 4.76671L8.47917 1.83337H13.5208L13.8875 4.76671C14.0861 4.8431 14.2733 4.93476 14.449 5.04171C14.6247 5.14865 14.7965 5.26324 14.9646 5.38546L17.6917 4.23962L20.2125 8.59379L17.8521 10.3813C17.8674 10.4882 17.875 10.5914 17.875 10.6907V11.3094C17.875 11.4087 17.8597 11.5118 17.8292 11.6188L20.1896 13.4063L17.6688 17.7605L14.9646 16.6146C14.7965 16.7368 14.6208 16.8514 14.4375 16.9584C14.2542 17.0653 14.0708 17.157 13.8875 17.2334L13.5208 20.1667H8.47917ZM11.0458 14.2084C11.932 14.2084 12.6882 13.8952 13.3146 13.2688C13.941 12.6424 14.2542 11.8862 14.2542 11C14.2542 10.1139 13.941 9.35768 13.3146 8.73129C12.6882 8.1049 11.932 7.79171 11.0458 7.79171C10.1445 7.79171 9.38438 8.1049 8.76563 8.73129C8.14688 9.35768 7.83751 10.1139 7.83751 11C7.83751 11.8862 8.14688 12.6424 8.76563 13.2688C9.38438 13.8952 10.1445 14.2084 11.0458 14.2084Z" fill="#4D4D4D"/>
</svg>
