<svg width="20" height="20" viewBox="0 0 20 20" fill="none" xmlns="http://www.w3.org/2000/svg">
<path d="M15.4342 0.75V2.55M4.0658 0.75V2.55" stroke="#333333" stroke-width="1.5" stroke-linecap="round" stroke-linejoin="round"/>
<path d="M0.75 9.96894C0.75 6.04737 0.75 4.08658 1.93622 2.8683C3.12244 1.65002 5.03162 1.65002 8.85 1.65002H10.65C14.4684 1.65002 16.3776 1.65002 17.5638 2.8683C18.75 4.08658 18.75 6.04737 18.75 9.96894V10.4311C18.75 14.3527 18.75 16.3135 17.5638 17.5317C16.3776 18.75 14.4684 18.75 10.65 18.75H8.85C5.03162 18.75 3.12244 18.75 1.93622 17.5317C0.75 16.3135 0.75 14.3527 0.75 10.4311V9.96894Z" stroke="#333333" stroke-width="1.5" stroke-linecap="round" stroke-linejoin="round"/>
<path d="M1.22375 6.15002H18.2764" stroke="#333333" stroke-width="1.5" stroke-linecap="round" stroke-linejoin="round"/>
<circle cx="10.2" cy="12" r="2.25" fill="#808080"/>
</svg>
